<svg width="14" height="14" viewBox="0 0 14 14" fill="none" xmlns="http://www.w3.org/2000/svg">
<path d="M7.005 3.78552C5.255 3.78552 3.86047 5.2074 3.86047 6.93005C3.86047 8.68005 5.255 10.0746 7.005 10.0746C8.72766 10.0746 10.1495 8.68005 10.1495 6.93005C10.1495 5.2074 8.72766 3.78552 7.005 3.78552ZM7.005 8.98083C5.88391 8.98083 4.95422 8.07849 4.95422 6.93005C4.95422 5.80896 5.85657 4.90662 7.005 4.90662C8.1261 4.90662 9.02844 5.80896 9.02844 6.93005C9.02844 8.07849 8.1261 8.98083 7.005 8.98083ZM10.9972 3.67615C10.9972 3.26599 10.6691 2.93787 10.2589 2.93787C9.84875 2.93787 9.52063 3.26599 9.52063 3.67615C9.52063 4.0863 9.84875 4.41443 10.2589 4.41443C10.6691 4.41443 10.9972 4.0863 10.9972 3.67615ZM13.0753 4.41443C13.0206 3.43005 12.8019 2.55505 12.0909 1.84412C11.38 1.13318 10.505 0.914429 9.52063 0.859741C8.50891 0.805054 5.47375 0.805054 4.46204 0.859741C3.47766 0.914429 2.63 1.13318 1.89172 1.84412C1.18079 2.55505 0.962036 3.43005 0.907349 4.41443C0.852661 5.42615 0.852661 8.4613 0.907349 9.47302C0.962036 10.4574 1.18079 11.3051 1.89172 12.0433C2.63 12.7543 3.47766 12.973 4.46204 13.0277C5.47375 13.0824 8.50891 13.0824 9.52063 13.0277C10.505 12.973 11.38 12.7543 12.0909 12.0433C12.8019 11.3051 13.0206 10.4574 13.0753 9.47302C13.13 8.4613 13.13 5.42615 13.0753 4.41443ZM11.7628 10.5394C11.5714 11.0863 11.1339 11.4965 10.6144 11.7152C9.79407 12.0433 7.88 11.9613 7.005 11.9613C6.10266 11.9613 4.1886 12.0433 3.39563 11.7152C2.84875 11.4965 2.4386 11.0863 2.21985 10.5394C1.89172 9.74646 1.97375 7.8324 1.97375 6.93005C1.97375 6.05505 1.89172 4.14099 2.21985 3.32068C2.4386 2.80115 2.84875 2.39099 3.39563 2.17224C4.1886 1.84412 6.10266 1.92615 7.005 1.92615C7.88 1.92615 9.79407 1.84412 10.6144 2.17224C11.1339 2.36365 11.5441 2.80115 11.7628 3.32068C12.0909 4.14099 12.0089 6.05505 12.0089 6.93005C12.0089 7.8324 12.0909 9.74646 11.7628 10.5394Z" fill="#777777"/>
</svg>
