<svg width="16" height="10" viewBox="0 0 16 10" fill="none" xmlns="http://www.w3.org/2000/svg">
<path d="M14.7823 1.36658C14.8644 1.03845 14.7823 0.765015 14.2902 0.765015H12.6769C12.2667 0.765015 12.0753 0.983765 11.9659 1.22986C11.9659 1.22986 11.1456 3.22595 9.99719 4.53845C9.61438 4.89392 9.45032 5.03064 9.23157 5.03064C9.14954 5.03064 8.98547 4.89392 8.98547 4.5658V1.36658C8.98547 0.956421 8.8761 0.765015 8.52063 0.765015H6.005C5.73157 0.765015 5.59485 0.956421 5.59485 1.14783C5.59485 1.53064 6.16907 1.61267 6.22375 2.70642V5.08533C6.22375 5.60486 6.14172 5.71423 5.92297 5.71423C5.3761 5.71423 4.0636 3.6908 3.27063 1.39392C3.10657 0.956421 2.9425 0.765015 2.53235 0.765015H0.919067C0.481567 0.765015 0.372192 0.983765 0.372192 1.22986C0.372192 1.66736 0.919067 3.77283 2.91516 6.58923C4.255 8.5033 6.14172 9.51501 7.83704 9.51501C8.84875 9.51501 8.98547 9.29626 8.98547 8.91345C8.98547 7.08142 8.90344 6.89001 9.39563 6.89001C9.64172 6.89001 10.0519 7.02673 11.0089 7.95642C12.1027 9.05017 12.2941 9.51501 12.8956 9.51501H14.5089C14.9738 9.51501 15.1925 9.29626 15.0558 8.83142C14.755 7.90173 12.7042 5.93298 12.5948 5.79626C12.3488 5.49548 12.4308 5.35876 12.5948 5.08533C12.5948 5.08533 14.5636 2.29626 14.7823 1.36658Z" fill="#777777"/>
</svg>
